<svg width="11" height="13" viewBox="0 0 11 13" fill="none" xmlns="http://www.w3.org/2000/svg">
<path d="M4.61987 12.0878C4.30715 12.0879 3.99521 12.0565 3.6888 11.994C3.09792 11.873 2.53666 11.6368 2.03703 11.2989C1.29426 10.7975 0.712841 10.0914 0.363238 9.26619C0.245049 8.98675 0.154819 8.6963 0.0938671 8.39908C-0.031289 7.78468 -0.031289 7.15135 0.0938671 6.53694C0.214898 5.94606 0.451092 5.3848 0.788972 4.88518C1.29041 4.1424 1.9965 3.56099 2.82169 3.21138C3.10113 3.09319 3.39158 3.00296 3.6888 2.94201C4.3032 2.81686 4.93653 2.81686 5.55094 2.94201C6.14182 3.06304 6.70308 3.29924 7.2027 3.63712C7.94548 4.13856 8.52689 4.84465 8.8765 5.66984C8.99469 5.94927 9.08492 6.23972 9.14587 6.53694C9.26894 7.14156 9.27087 7.76458 9.15155 8.36994C9.04922 8.89064 8.8568 9.38948 8.58296 9.84402C8.17284 10.5288 7.59211 11.0956 6.89748 11.4888C6.20286 11.8821 5.4181 12.0885 4.61987 12.0878ZM6.21122 5.3038C6.13636 5.30375 6.06222 5.31847 5.99307 5.34713C5.92391 5.37579 5.8611 5.41783 5.80823 5.47083L4.19342 7.0835C4.08645 7.19066 4.02643 7.33593 4.02656 7.48735C4.02669 7.63877 4.08697 7.78393 4.19413 7.8909C4.3013 7.99788 4.44656 8.0579 4.59798 8.05777C4.7494 8.05763 4.89456 7.99735 5.00153 7.89019L5.80823 7.0835L6.61492 6.27752C6.69556 6.19811 6.75066 6.09645 6.77319 5.98554C6.79571 5.87463 6.78462 5.75952 6.74134 5.65495C6.69806 5.55038 6.62456 5.4611 6.53025 5.39854C6.43593 5.33599 6.3251 5.303 6.21193 5.3038H6.21122Z" fill="url(#paint0_linear_814_6377)"/>
<path d="M2.3584 0.604122C2.3584 0.443897 2.42205 0.290234 2.53534 0.176938C2.64864 0.0636413 2.8023 -7.98702e-06 2.96253 -7.98702e-06L6.58731 -7.98702e-06C6.74753 -7.98702e-06 6.9012 0.0636413 7.01449 0.176938C7.12779 0.290234 7.19144 0.443897 7.19144 0.604122C7.19144 0.764347 7.12779 0.91801 7.01449 1.03131C6.9012 1.1446 6.74753 1.20825 6.58731 1.20825L2.96253 1.20825C2.8023 1.20825 2.64864 1.1446 2.53534 1.03131C2.42205 0.91801 2.3584 0.764347 2.3584 0.604122V0.604122Z" fill="url(#paint1_linear_814_6377)"/>
<path d="M8.55942 1.73257C8.67645 1.61554 8.83517 1.5498 9.00068 1.5498C9.16618 1.5498 9.3249 1.61554 9.44193 1.73257L10.239 2.52965C10.356 2.64668 10.4218 2.8054 10.4218 2.9709C10.4218 3.13641 10.356 3.29513 10.239 3.41216C10.122 3.52919 9.96326 3.59493 9.79775 3.59493C9.63225 3.59493 9.47352 3.52919 9.3565 3.41216L8.55942 2.61508C8.44239 2.49806 8.37665 2.33933 8.37665 2.17383C8.37665 2.00832 8.44239 1.8496 8.55942 1.73257Z" fill="url(#paint2_linear_814_6377)"/>
<defs>
<linearGradient id="paint0_linear_814_6377" x1="4.61981" y1="2.84814" x2="4.61981" y2="12.0878" gradientUnits="userSpaceOnUse">
<stop stop-color="#FE724C"/>
<stop offset="1" stop-color="#FCA892"/>
</linearGradient>
<linearGradient id="paint1_linear_814_6377" x1="2.3584" y1="0.604122" x2="7.19144" y2="0.604122" gradientUnits="userSpaceOnUse">
<stop stop-color="#FE724C"/>
<stop offset="1" stop-color="#FCA892"/>
</linearGradient>
<linearGradient id="paint2_linear_814_6377" x1="8.55942" y1="1.73257" x2="10.239" y2="3.41216" gradientUnits="userSpaceOnUse">
<stop stop-color="#FE724C"/>
<stop offset="1" stop-color="#FCA892"/>
</linearGradient>
</defs>
</svg>
