<svg width="31" height="31" viewBox="0 0 31 31" fill="none" xmlns="http://www.w3.org/2000/svg">
<path d="M15.8961 5.84057C18.0602 5.80727 20.1531 6.61351 21.7355 8.09008L25.9978 3.92216C23.2632 1.35974 19.6433 -0.0453416 15.8961 0.00111641C13.0962 0.000469455 10.3514 0.778697 7.96858 2.24877C5.58574 3.71884 3.65882 5.8228 2.40332 8.32535L7.2872 12.1171C7.88437 10.3013 9.03647 8.71881 10.581 7.59271C12.1256 6.4666 13.9846 5.85375 15.8961 5.84057Z" fill="#EA4335"/>
<path d="M30.3956 15.44C30.4134 14.4018 30.3061 13.3651 30.0761 12.3525H15.8965V17.9582H24.2207C24.0628 18.941 23.7078 19.8817 23.1769 20.7237C22.6461 21.5658 21.9504 22.2918 21.1318 22.858L25.898 26.5496C27.3835 25.1155 28.5516 23.3858 29.327 21.4722C30.1025 19.5586 30.468 17.5036 30.4 15.44H30.3956Z" fill="#4285F4"/>
<path d="M7.30482 18.0913C6.9746 17.1298 6.80436 16.1206 6.80089 15.104C6.80691 14.089 6.97105 13.0812 7.28739 12.1167L2.40351 8.32495C1.34424 10.428 0.79248 12.75 0.79248 15.1047C0.79248 17.4595 1.34424 19.7815 2.40351 21.8845L7.30482 18.0913Z" fill="#FBBC05"/>
<path d="M15.8962 30.2076C19.5751 30.3116 23.1542 29.0025 25.8978 26.5494L21.1315 22.8578C19.5861 23.8938 17.756 24.4218 15.8962 24.3681C13.9864 24.3568 12.1287 23.7443 10.5866 22.6177C9.04443 21.4911 7.8962 19.9075 7.30477 18.0916L2.4209 21.8848C3.67302 24.3862 5.59678 26.4897 7.97675 27.9596C10.3567 29.4296 13.0989 30.208 15.8962 30.2076Z" fill="#34A853"/>
</svg>
