<svg width="39" height="24" viewBox="0 0 39 24" fill="none" xmlns="http://www.w3.org/2000/svg">
<path d="M24.5535 20.6197H14.4473V2.5779H24.5535V20.6197Z" fill="#FF5F00"/>
<path d="M15.0884 11.5992C15.0884 7.93931 16.8134 4.67922 19.4996 2.57828C17.5352 1.04197 15.056 0.125 12.3617 0.125C5.98309 0.125 0.8125 5.26208 0.8125 11.5992C0.8125 17.9363 5.98309 23.0733 12.3617 23.0733C15.056 23.0733 17.5352 22.1564 19.4996 20.6201C16.8134 18.5191 15.0884 15.259 15.0884 11.5992Z" fill="#EB001B"/>
<path d="M38.1876 11.5992C38.1876 17.9363 33.017 23.0733 26.6384 23.0733C23.944 23.0733 21.4648 22.1564 19.4996 20.6201C22.1866 18.5191 23.9117 15.259 23.9117 11.5992C23.9117 7.93931 22.1866 4.67922 19.4996 2.57828C21.4648 1.04197 23.944 0.125 26.6384 0.125C33.017 0.125 38.1876 5.26208 38.1876 11.5992Z" fill="#F79E1B"/>
</svg>
