<svg width="24" height="24" viewBox="0 0 24 24" fill="none" xmlns="http://www.w3.org/2000/svg">
<path d="M15.1098 17.6121H8.89062V6.50948H15.1098V17.6121Z" fill="#FF5F00"/>
<path d="M9.28514 12.061C9.28514 9.80881 10.3467 7.80259 11.9998 6.50971C10.7909 5.56429 9.26526 5 7.6072 5C3.6819 5 0.5 8.16128 0.5 12.061C0.5 15.9608 3.6819 19.1221 7.6072 19.1221C9.26526 19.1221 10.7909 18.5578 11.9998 17.6123C10.3467 16.3195 9.28514 14.3132 9.28514 12.061Z" fill="#EB001B"/>
<path d="M23.5 12.061C23.5 15.9608 20.3181 19.1221 16.3928 19.1221C14.7348 19.1221 13.2091 18.5578 11.9998 17.6123C13.6533 16.3195 14.7149 14.3132 14.7149 12.061C14.7149 9.80881 13.6533 7.80259 11.9998 6.50971C13.2091 5.56429 14.7348 5 16.3928 5C20.3181 5 23.5 8.16128 23.5 12.061Z" fill="#F79E1B"/>
</svg>
