<svg width="21" height="20" viewBox="0 0 21 20" fill="none" xmlns="http://www.w3.org/2000/svg">
<path d="M7.52881 16.1233L0.999809 16.1233" stroke="#FE724C" stroke-width="2" stroke-linecap="round"/>
<path d="M19.2808 16.1233L7.52876 16.1233" stroke="#FE724C" stroke-opacity="0.25" stroke-width="2" stroke-linecap="round"/>
<path d="M10.3467 16C10.3467 14.3431 9.00353 13 7.34668 13C5.68983 13 4.34668 14.3431 4.34668 16C4.34668 17.6569 5.68983 19 7.34668 19C9.00353 19 10.3467 17.6569 10.3467 16Z" fill="#FE724C" stroke="#FE724C" stroke-width="1.5"/>
<path d="M12.752 3.87671L19.281 3.87671" stroke="#FE724C" stroke-width="2" stroke-linecap="round"/>
<path d="M1 3.87671L12.752 3.87671" stroke="#FE724C" stroke-opacity="0.25" stroke-width="2" stroke-linecap="round"/>
<path d="M9.93359 4C9.93359 5.65685 11.2767 7 12.9336 7C14.5904 7 15.9336 5.65685 15.9336 4C15.9336 2.34315 14.5904 1 12.9336 1C11.2767 1 9.93359 2.34315 9.93359 4Z" fill="#FE724C" stroke="#FE724C" stroke-width="1.5"/>
</svg>
