<svg width="20" height="24" viewBox="0 0 20 24" fill="none" xmlns="http://www.w3.org/2000/svg">
<path fill-rule="evenodd" clip-rule="evenodd" d="M5.9912 22.4873L6.36845 20.0106L5.52807 19.9904H1.51511L4.30397 1.71339C4.31266 1.65805 4.34075 1.60667 4.38177 1.57012C4.42299 1.53358 4.47553 1.51353 4.53049 1.51353H11.297C13.5435 1.51353 15.0937 1.99659 15.903 2.9502C16.2825 3.39755 16.5241 3.86516 16.6411 4.37955C16.7638 4.91943 16.7658 5.56435 16.6462 6.35108L16.6375 6.40831V6.91247L17.0169 7.13468C17.3364 7.30991 17.5904 7.5104 17.7852 7.73993C18.1097 8.12254 18.3196 8.60874 18.4084 9.18495C18.5001 9.77766 18.4698 10.4832 18.3196 11.2818C18.1465 12.2003 17.8666 13.0004 17.4886 13.6549C17.141 14.2581 16.6981 14.7585 16.1721 15.1461C15.67 15.5145 15.0735 15.7942 14.399 15.9732C13.7454 16.149 13.0001 16.2378 12.1828 16.2378H11.6562C11.2798 16.2378 10.9141 16.3779 10.6269 16.6291C10.339 16.8856 10.1486 17.2361 10.0902 17.6193L10.0504 17.8423L9.38383 22.2079L9.35372 22.3681C9.34564 22.4188 9.3319 22.4441 9.31169 22.4612C9.29371 22.4769 9.26785 22.4873 9.24259 22.4873H5.9912Z" fill="#28356A"/>
<path fill-rule="evenodd" clip-rule="evenodd" d="M17.3764 6.46653C17.3564 6.59998 17.3332 6.73636 17.3073 6.8765C16.415 11.6119 13.362 13.2478 9.46305 13.2478H7.47778C7.00091 13.2478 6.59901 13.6056 6.52485 14.0918L5.22054 22.6431C5.17224 22.9624 5.41027 23.25 5.72186 23.25H9.243C9.65985 23.25 10.0141 22.9369 10.0797 22.5119L10.1143 22.3271L10.7773 17.9787L10.8199 17.7402C10.8848 17.3137 11.2398 17.0004 11.6566 17.0004H12.1832C15.5946 17.0004 18.2653 15.569 19.0459 11.4263C19.3718 9.69574 19.2031 8.25072 18.3403 7.23447C18.0792 6.92808 17.7553 6.67371 17.3764 6.46653Z" fill="#298FC2"/>
<path fill-rule="evenodd" clip-rule="evenodd" d="M16.4427 6.08186C16.3063 6.04072 16.1656 6.00355 16.0214 5.96992C15.8763 5.93713 15.7278 5.9081 15.5748 5.88262C15.0395 5.79324 14.4529 5.75084 13.8247 5.75084H8.5212C8.39046 5.75084 8.2664 5.78133 8.15546 5.83647C7.91077 5.95802 7.72911 6.19736 7.68506 6.49037L6.55674 13.8765L6.52485 14.0918C6.59901 13.6056 7.00091 13.2478 7.47778 13.2478H9.46305C13.362 13.2478 16.415 11.6119 17.3073 6.8765C17.3332 6.73636 17.3564 6.59998 17.3764 6.46653C17.1507 6.34268 16.9058 6.23683 16.6425 6.14661C16.5774 6.12426 16.5104 6.10275 16.4427 6.08186Z" fill="#22284F"/>
<path fill-rule="evenodd" clip-rule="evenodd" d="M7.68506 6.49037C7.72911 6.19736 7.91077 5.95802 8.15546 5.83647C8.2664 5.78133 8.39046 5.75084 8.5212 5.75084H13.8247C14.4529 5.75084 15.0395 5.79324 15.5748 5.88262C15.7278 5.9081 15.8763 5.93713 16.0214 5.96992C16.1656 6.00355 16.3063 6.04072 16.4427 6.08186C16.5104 6.10275 16.5768 6.1251 16.6425 6.14661C16.9058 6.23683 17.1507 6.34268 17.3764 6.46653C17.6419 4.71659 17.3748 3.52518 16.4595 2.44627C15.4502 1.25834 13.6288 0.75 11.298 0.75H4.53134C4.05528 0.75 3.64913 1.10776 3.57558 1.59479L0.757213 20.0597C0.701646 20.425 0.974228 20.7545 1.33067 20.7545H5.50811L7.68506 6.49037Z" fill="#28356A"/>
</svg>
