<svg width="59" height="20" viewBox="0 0 59 20" fill="none" xmlns="http://www.w3.org/2000/svg">
<path d="M22.4009 0.344169L14.6762 18.7735H9.63666L5.83717 4.06718C5.605 3.16033 5.40559 2.82982 4.7036 2.44741C3.55638 1.82464 1.6662 1.24282 0 0.879537L0.111992 0.333241H8.22449C8.75506 0.332153 9.2685 0.521067 9.67184 0.865783C10.0752 1.2105 10.3418 1.68823 10.4233 2.2125L12.431 12.8653L17.3941 0.319587L22.4009 0.344169ZM42.1468 12.756C42.1686 7.89399 35.4218 7.6263 35.4683 5.45204C35.4819 4.79102 36.1129 4.0863 37.4896 3.90875C39.1018 3.75288 40.7261 4.03602 42.1905 4.72819L43.029 0.819444C41.6025 0.284264 40.0922 0.00680438 38.5685 0C33.8567 0 30.538 2.50477 30.5134 6.09121C30.4806 8.74621 32.8788 10.2239 34.6871 11.1062C36.5418 12.0103 37.1645 12.5894 37.1591 13.3979C37.1454 14.6353 35.6786 15.1788 34.3047 15.2007C31.9092 15.2389 30.5161 14.5533 29.4099 14.0371L28.5467 18.0742C29.6584 18.5877 31.7152 19.033 33.8485 19.0548C38.8553 19.0548 42.1304 16.5801 42.1468 12.7478V12.756ZM54.5914 18.7571H59L55.1513 0.344169H51.0814C50.6471 0.342313 50.222 0.469943 49.8605 0.71077C49.4991 0.951598 49.2175 1.2947 49.0519 1.69626L41.8982 18.7735H46.905L47.8993 16.0201H54.015L54.5914 18.7571ZM49.2705 12.2288L51.7807 5.33732L53.2256 12.2589L49.2705 12.2288ZM29.2132 0.327781L25.2717 18.7571H20.5025L24.4468 0.327781H29.2132Z" fill="white"/>
</svg>
